<?xml version="1.0" encoding="UTF-8"?>
<svg id="a" data-name="TagMate" xmlns="http://www.w3.org/2000/svg" viewBox="0 0 1879.6 1530.5">
  <path d="m408.1,1042.4l431,431c56.1,56.1,147.2,56.1,203.3,0l690.6-690.6c173.2-173.2,176.3-459.7,4.2-634.1-175-177.4-460.6-178.1-636.5-2.2l-160,160,238.6,238.6c-88.4,88.4-231.7,88.4-320,0l-78.6-78.6-372.6,372.6c-56.1,56.1-56.1,147.2,0,203.3Zm849.9-739c87.1-86.9,232.8-86.9,319.8,0,88.5,88.4,88.5,231.9,0,320.3-87,86.9-232.8,86.9-319.8,0-88.5-88.4-88.5-231.9,0-320.3Z" style="fill: #e5e9ff; stroke: #000; stroke-miterlimit: 10; stroke-width: 30px;"/>
  <path d="m146.4,780.7l160,160,101.7,101.7c-56.1-56.1-56.1-147.2,0-203.3l372.6-372.6,78.6,78.6c88.4,88.4,231.7,88.4,320,0l-238.6-238.6-160-160c-175.2-175.2-459.2-175.2-634.3,0-175.2,175.2-175.2,459.2,0,634.3Z" style="fill: #ffe9f6; stroke: #000; stroke-miterlimit: 10; stroke-width: 30px;"/>
</svg>